<?xml version="1.0" encoding="UTF-8" standalone="no"?>
<svg version="1.1" id="ExplodedTile" x="0px" y="0px" width="76px" height="76px" viewBox="0 0 76 76"
	enable-background="new 0 0 76 76" xml:space="preserve" xmlns="http://www.w3.org/2000/svg">
	<g id="tile">
		<g id="background">
			<path id="rect1313_65_" fill="#FDFCFD"
				d="M0.009,0h75.982C75.996,0,76,0.004,76,0.009V75.99c0,0.006-0.004,0.01-0.009,0.01H0.009    C0.004,76,0,75.996,0,75.99V0.009C0,0.004,0.004,0,0.009,0z" />
			<path id="path1341_65_" fill="#757575"
				d="M75.99,0C75.995,0,76,0.005,76,0.01v75.981C76,75.996,75.995,76,75.99,76H0.009    C0.004,76,0,75.996,0,75.991L75.99,0z" />
			<polygon id="rect1311_65_" fill="#B9B9B9"
				points="8.508,8.5 67.492,8.5 67.5,8.508 67.5,67.491 67.492,67.5 8.508,67.5    8.5,67.491 8.5,8.508   " />
		</g>
		<g id="explosion" transform="matrix(1.6381256,0,0,1.6308905,8.5352449,8.6260454)">
			<path fill="#bb1a34"
				d="M 22,0 18,8.028 13,3.01 v 7.024 L 3,8.028 11,16.056 0,22.076 H 12 L 6,34.118 18,26.09 29,36.125 26,22.076 h 10 l -8,-6.021 8,-9.031 -12,3.01 z"
				id="path764" />
			<path fill="#fcab40"
				d="m 22.914,12.924 1.86,-0.467 5.226,-1.311 -3.381,3.816 -1.319,1.49 1.59,1.195 2.925,2.202 h -5.918 l 0.473,2.218 1.551,7.26 -5.845,-5.332 -1.056,-0.964 -1.188,0.795 -5.24,3.506 2.406,-4.828 1.322,-2.655 H 9.564 l 3.759,-2.059 2.145,-1.172 -1.727,-1.735 -3.044,-3.053 3.221,0.646 2.186,0.439 V 8.686 l 1.45,1.455 1.794,1.799 1.133,-2.276 1.273,-2.556"
				id="path766" />
			<path fill="#f5f8fa"
				d="m 21.512,14.301 0.767,-0.193 2.158,-0.541 -1.396,1.576 -0.545,0.615 0.656,0.493 1.208,0.909 h -2.443 l 0.195,0.916 0.641,2.997 -2.413,-2.201 -0.437,-0.398 -0.49,0.328 -2.163,1.448 0.993,-1.994 0.546,-1.096 H 16 l 1.553,-0.85 0.885,-0.484 -0.713,-0.716 -1.257,-1.261 1.329,0.267 0.903,0.181 v -1.745 l 0.599,0.6 0.74,0.743 0.468,-0.939 0.525,-1.056"
				id="path768" />
		</g>
	</g>
</svg>