<?xml version="1.0" encoding="UTF-8" standalone="no"?>
<svg version="1.0" width="76px" height="76px" viewBox="0 0 76 76" id="svg75" xmlns="http://www.w3.org/2000/svg">
	<g id="tile">
		<g id="background">
			<path id="rect1313_65_" fill="#FDFCFD"
				d="M0.009,0h75.982C75.996,0,76,0.004,76,0.009V75.99c0,0.006-0.004,0.01-0.009,0.01H0.009    C0.004,76,0,75.996,0,75.99V0.009C0,0.004,0.004,0,0.009,0z" />
			<path id="path1341_65_" fill="#757575"
				d="M75.99,0C75.995,0,76,0.005,76,0.01v75.981C76,75.996,75.995,76,75.99,76H0.009    C0.004,76,0,75.996,0,75.991L75.99,0z" />
			<polygon id="rect1311_65_" fill="#B9B9B9"
				points="8.508,8.5 67.492,8.5 67.5,8.508 67.5,67.491 67.492,67.5 8.508,67.5    8.5,67.491 8.5,8.508   " />
		</g>
	</g>
	<g id="bomb">
		<circle style="fill:#1a1a1a;stroke-width:0.947369" id="path343" cx="38" cy="42" r="16" />
		<rect style="fill:#1a1a1a" id="rect399" width="8" height="6" x="34" y="22" />
		<path style="fill:#1a1a1a" id="path715"
			d="m 37.906768,22.764941 c -0.08137,-0.383627 -0.116873,-0.775049 -0.144265,-1.165657 -0.0056,-0.231445 -0.03576,-0.46574 -0.01122,-0.696799 0.04489,-0.158572 0.167728,-0.289114 0.297854,-0.385426 0.204163,-0.14589 0.427825,-0.259549 0.646247,-0.381675 0.234725,-0.100939 0.4341,-0.25846 0.641363,-0.403665 0.191746,-0.134175 0.337477,-0.325414 0.467685,-0.517586 0.146676,-0.201397 0.237812,-0.4368 0.308156,-0.674084 0.06071,-0.242671 0.07384,-0.492679 0.081,-0.741576 0.01542,-0.240004 0.0033,-0.47165 -0.06025,-0.703494 -0.07436,-0.181882 -0.131674,-0.369926 -0.204478,-0.552304 0,0 -0.680583,-0.314627 -0.680583,-0.314627 v 0 c 0.07326,0.181086 0.129736,0.367473 0.20964,0.546227 0.06914,0.230471 0.08952,0.442068 0.07094,0.68333 -0.0056,0.242905 -0.01532,0.487269 -0.07171,0.724717 -0.066,0.230542 -0.154462,0.458715 -0.297223,0.65337 -0.12612,0.184937 -0.266676,0.367795 -0.453529,0.494937 -0.203767,0.145958 -0.405659,0.29391 -0.635705,0.397586 -0.222491,0.122663 -0.448506,0.240565 -0.655013,0.389644 -0.142413,0.115159 -0.274925,0.257351 -0.328047,0.436375 -0.03151,0.235639 0.0044,0.475983 0.01033,0.712476 0.02934,0.392575 0.06785,0.784888 0.13463,1.173085 0,0 0.674185,0.325146 0.674185,0.325146 z" />
	</g>
</svg>